<svg id="visual" viewBox="0 0 1440 1024" width="1440" height="1024" xmlns="http://www.w3.org/2000/svg" xmlns:xlink="http://www.w3.org/1999/xlink" version="1.1"><rect x="0" y="0" width="1440" height="1024" fill="#0077B6"></rect><path d="M0 826L34.3 820.5C68.7 815 137.3 804 205.8 812.7C274.3 821.3 342.7 849.7 411.2 838.8C479.7 828 548.3 778 617 764.8C685.7 751.7 754.3 775.3 823 782.5C891.7 789.7 960.3 780.3 1028.8 791.3C1097.3 802.3 1165.7 833.7 1234.2 845.2C1302.7 856.7 1371.3 848.3 1405.7 844.2L1440 840L1440 1025L1405.7 1025C1371.3 1025 1302.7 1025 1234.2 1025C1165.7 1025 1097.3 1025 1028.8 1025C960.3 1025 891.7 1025 823 1025C754.3 1025 685.7 1025 617 1025C548.3 1025 479.7 1025 411.2 1025C342.7 1025 274.3 1025 205.8 1025C137.3 1025 68.7 1025 34.3 1025L0 1025Z" fill="#03045E" stroke-linecap="round" stroke-linejoin="miter"></path></svg>